<?xml version="1.0" standalone="no"?><!DOCTYPE svg PUBLIC "-//W3C//DTD SVG 1.1//EN" "http://www.w3.org/Graphics/SVG/1.1/DTD/svg11.dtd"><svg t="1558676519187" class="icon" style="" viewBox="0 0 1024 1024" version="1.1" xmlns="http://www.w3.org/2000/svg" p-id="11813" xmlns:xlink="http://www.w3.org/1999/xlink" width="128" height="128"><defs><style type="text/css"></style></defs><path d="M902.59911111 772.43733333V251.56266667H468.65066667c-31.97155555 0-57.91288889-25.94133333-57.91288889-57.91288889 0-31.97155555 25.94133333-57.91288889 57.91288889-57.91288889h491.86133333c31.97155555 0 57.91288889 25.94133333 57.91288889 57.91288889v636.47288889c0 31.97155555-25.94133333 57.91288889-57.91288889 57.91288888H786.88711111c-31.97155555 0-57.91288889-25.82755555-57.91288889-57.7991111 0-31.97155555 25.82755555-57.91288889 57.79911111-57.9128889h115.82577778zM121.40088889 251.56266667v520.76088888h433.94844444c31.97155555 0 57.91288889 25.82755555 57.91288889 57.79911112 0 31.97155555-25.82755555 57.91288889-57.79911111 57.91288888H63.60177778c-31.97155555 0-57.91288889-25.94133333-57.91288889-57.91288888V193.76355555c0-31.97155555 25.94133333-57.91288889 57.91288889-57.91288888h173.62488889c31.97155555 0 57.91288889 25.94133333 57.91288888 57.91288888 0 31.97155555-25.94133333 57.91288889-57.91288888 57.9128889H121.40088889z" p-id="11814" fill="#d81e06"></path></svg>